<?xml version="1.0" encoding="utf-8"?>
<!-- Generator: Adobe Illustrator 24.3.0, SVG Export Plug-In . SVG Version: 6.00 Build 0)  -->
<svg version="1.1" id="Layer_1" xmlns="http://www.w3.org/2000/svg" xmlns:xlink="http://www.w3.org/1999/xlink" x="0px" y="0px"
	 viewBox="0 0 116 127.7" style="enable-background:new 0 0 116 127.7;" xml:space="preserve">
<style type="text/css">
	.st0{fill:#FC013C;}
	.st1{fill:#00BEFC;}
	.st2{fill:none;stroke:#01B9F3;stroke-miterlimit:10;}
	.st3{fill:none;stroke:#F90308;stroke-width:0.7;stroke-linecap:round;stroke-linejoin:round;stroke-miterlimit:10;}
	.st4{fill:none;stroke:#F90308;stroke-width:0.7;stroke-miterlimit:10;}
	.st5{fill:#FFB806;stroke:#8F7C78;stroke-width:0.5;stroke-miterlimit:10;}
	.st6{fill:#01B9F3;}
	.st7{font-family:'ArialNarrow';}
	.st8{font-size:7.9096px;}
</style>
<g>
	<g>
		<g>
			<polygon class="st0" points="110.9,106 89.9,115 107.4,99 			"/>
			<polygon class="st0" points="106.7,97.5 89.1,110.2 104,92 			"/>
			<polygon class="st0" points="103.1,90.2 88.2,105 100.4,84.8 			"/>
			<polygon class="st0" points="99.5,83 85.2,98.7 96.7,77.1 			"/>
			<polygon class="st0" points="95.5,74.8 81.4,94.7 92.8,69.2 			"/>
			<polygon class="st0" points="90.9,65.5 76.5,90.3 87.6,58.6 			"/>
			<polygon class="st0" points="58.8,0 79.2,41.5 63.4,85.5 			"/>
			<polygon class="st0" points="85.8,55.1 71.2,85.3 80.1,43.3 			"/>
			<polygon class="st0" points="116,116.6 90.7,116.6 111.7,107.6 			"/>
		</g>
		<g>
			<polygon class="st1" points="5.2,106 26.2,115 8.6,99 			"/>
			<polygon class="st1" points="9.4,97.5 27,110.2 12.1,92 			"/>
			<polygon class="st1" points="13,90.2 27.8,105 15.6,84.8 			"/>
			<polygon class="st1" points="16.5,83 30.8,98.7 19.4,77.1 			"/>
			<polygon class="st1" points="20.5,74.8 34.6,94.7 23.3,69.2 			"/>
			<polygon class="st1" points="25.1,65.5 39.6,90.3 28.5,58.6 			"/>
			<polygon class="st1" points="57.3,0 36.9,41.5 52.7,85.5 			"/>
			<polygon class="st1" points="30.2,55.1 44.8,85.3 36,43.3 			"/>
			<polygon class="st1" points="0,116.6 25.4,116.6 4.4,107.6 			"/>
		</g>
	</g>
	<g>
		<polygon class="st2" points="71.7,106.3 62.3,107.7 58.1,116.3 53.8,107.8 44.3,106.5 51.1,99.8 49.5,90.3 57.9,94.7 66.4,90.2 
			64.8,99.7 		"/>
		<g>
			<g>
				<path class="st3" d="M63.1,103.1c-1,0.3-2.8,0.5-4.9,0.5c-2.4,0-4.4-0.2-5.3-0.6c0.3,1.5,1.2,2.7,2.5,3.5h5.3
					C61.9,105.8,62.8,104.6,63.1,103.1z"/>
				<line class="st4" x1="52.9" y1="103" x2="63" y2="103.1"/>
			</g>
			<ellipse class="st5" cx="58.1" cy="102.4" rx="0.7" ry="1.2"/>
		</g>
	</g>
	<text transform="matrix(1.2023 0 0 1 37.8693 125.2766)" class="st6 st7 st8">Makarajothi</text>
</g>
</svg>
