<?xml version="1.0" encoding="utf-8"?>
<!-- Generator: Adobe Illustrator 24.3.0, SVG Export Plug-In . SVG Version: 6.00 Build 0)  -->
<svg version="1.1" id="Layer_1" xmlns="http://www.w3.org/2000/svg" xmlns:xlink="http://www.w3.org/1999/xlink" x="0px" y="0px"
	 viewBox="0 0 116 127.7" style="enable-background:new 0 0 116 127.7;" xml:space="preserve">
<style type="text/css">
	.st0{fill:#FC013C;}
	.st1{fill:#00BEFC;}
	.st2{fill:none;stroke:#01B9F3;stroke-miterlimit:10;}
	.st3{fill:none;stroke:#F90308;stroke-width:0.7;stroke-linecap:round;stroke-linejoin:round;stroke-miterlimit:10;}
	.st4{fill:none;stroke:#F90308;stroke-width:0.7;stroke-miterlimit:10;}
	.st5{fill:#FFB806;stroke:#8F7C78;stroke-width:0.5;stroke-miterlimit:10;}
	.st6{enable-background:new    ;}
	.st7{fill:#01B9F3;}
</style>
<g>
	<g>
		<g>
			<polygon class="st0" points="110.9,106 89.9,115 107.4,99 			"/>
			<polygon class="st0" points="106.7,97.5 89.1,110.2 104,92 			"/>
			<polygon class="st0" points="103.1,90.2 88.2,105 100.4,84.8 			"/>
			<polygon class="st0" points="99.5,83 85.2,98.7 96.7,77.1 			"/>
			<polygon class="st0" points="95.5,74.8 81.4,94.7 92.8,69.2 			"/>
			<polygon class="st0" points="90.9,65.5 76.5,90.3 87.6,58.6 			"/>
			<polygon class="st0" points="58.8,0 79.2,41.5 63.4,85.5 			"/>
			<polygon class="st0" points="85.8,55.1 71.2,85.3 80.1,43.3 			"/>
			<polygon class="st0" points="116,116.6 90.7,116.6 111.7,107.6 			"/>
		</g>
		<g>
			<polygon class="st1" points="5.2,106 26.2,115 8.6,99 			"/>
			<polygon class="st1" points="9.4,97.5 27,110.2 12.1,92 			"/>
			<polygon class="st1" points="13,90.2 27.8,105 15.6,84.8 			"/>
			<polygon class="st1" points="16.5,83 30.8,98.7 19.4,77.1 			"/>
			<polygon class="st1" points="20.5,74.8 34.6,94.7 23.3,69.2 			"/>
			<polygon class="st1" points="25.1,65.5 39.6,90.3 28.5,58.6 			"/>
			<polygon class="st1" points="57.3,0 36.9,41.5 52.7,85.5 			"/>
			<polygon class="st1" points="30.2,55.1 44.8,85.3 36,43.3 			"/>
			<polygon class="st1" points="0,116.6 25.4,116.6 4.4,107.6 			"/>
		</g>
	</g>
	<g>
		<polygon class="st2" points="71.7,106.3 62.3,107.7 58.1,116.3 53.8,107.8 44.3,106.5 51.1,99.8 49.5,90.3 57.9,94.7 66.4,90.2 
			64.8,99.7 		"/>
		<g>
			<g>
				<path class="st3" d="M63.1,103.1c-1,0.3-2.8,0.5-4.9,0.5c-2.4,0-4.4-0.2-5.3-0.6c0.3,1.5,1.2,2.7,2.5,3.5h5.3
					C61.9,105.8,62.8,104.6,63.1,103.1z"/>
				<line class="st4" x1="52.9" y1="103" x2="63" y2="103.1"/>
			</g>
			<ellipse class="st5" cx="58.1" cy="102.4" rx="0.7" ry="1.2"/>
		</g>
	</g>
	<g class="st6">
		<path class="st7" d="M38.4,125.3v-5.7h1.1l1.3,4l0.3,0.8c0.1-0.2,0.2-0.5,0.3-0.9l1.3-3.9h1v5.7H43v-4.7l-1.6,4.7h-0.7l-1.6-4.8
			v4.8H38.4z"/>
		<path class="st7" d="M47.5,124.8c-0.2,0.2-0.5,0.3-0.7,0.4s-0.5,0.2-0.8,0.2c-0.4,0-0.8-0.1-1-0.3c-0.3-0.2-0.4-0.5-0.4-0.9
			c0-0.2,0.1-0.4,0.2-0.6s0.3-0.3,0.5-0.4s0.5-0.2,0.9-0.2c0.6-0.1,1-0.1,1.2-0.2v-0.2c0-0.3-0.1-0.5-0.2-0.6
			c-0.2-0.2-0.4-0.2-0.8-0.2c-0.3,0-0.6,0.1-0.7,0.2c-0.2,0.1-0.3,0.3-0.3,0.6l-0.7-0.1c0.1-0.4,0.3-0.8,0.6-1s0.7-0.3,1.3-0.3
			c0.4,0,0.8,0.1,1,0.2s0.4,0.3,0.5,0.5s0.1,0.5,0.1,0.9v0.9c0,0.6,0,1.1,0,1.2c0,0.2,0.1,0.3,0.2,0.5h-0.7
			C47.6,125.1,47.5,125,47.5,124.8z M47.4,123.2c-0.3,0.1-0.6,0.2-1.1,0.3c-0.3,0-0.5,0.1-0.6,0.1c-0.1,0.1-0.2,0.1-0.3,0.2
			s-0.1,0.2-0.1,0.3c0,0.2,0.1,0.4,0.2,0.5c0.1,0.1,0.3,0.2,0.6,0.2c0.2,0,0.5-0.1,0.7-0.2s0.3-0.2,0.4-0.4s0.1-0.4,0.1-0.8
			L47.4,123.2L47.4,123.2z"/>
		<path class="st7" d="M49.2,125.3v-5.7h0.7v3.2l1.6-1.7h0.9l-1.5,1.5l1.7,2.6h-0.8l-1.3-2.1l-0.5,0.5v1.6L49.2,125.3L49.2,125.3z"
			/>
		<path class="st7" d="M55.7,124.8c-0.2,0.2-0.5,0.3-0.7,0.4s-0.5,0.2-0.8,0.2c-0.4,0-0.8-0.1-1-0.3c-0.3-0.2-0.4-0.5-0.4-0.9
			c0-0.2,0.1-0.4,0.2-0.6s0.3-0.3,0.5-0.4s0.5-0.2,0.9-0.2c0.6-0.1,1-0.1,1.2-0.2v-0.2c0-0.3-0.1-0.5-0.2-0.6
			c-0.2-0.2-0.4-0.2-0.8-0.2c-0.3,0-0.6,0.1-0.7,0.2c-0.2,0.1-0.3,0.3-0.3,0.6l-0.7-0.1c0.1-0.4,0.3-0.8,0.6-1s0.7-0.3,1.3-0.3
			c0.4,0,0.8,0.1,1,0.2s0.4,0.3,0.5,0.5s0.1,0.5,0.1,0.9v0.9c0,0.6,0,1.1,0,1.2c0,0.2,0.1,0.3,0.2,0.5h-0.7
			C55.8,125.1,55.8,125,55.7,124.8z M55.7,123.2c-0.3,0.1-0.6,0.2-1.1,0.3c-0.3,0-0.5,0.1-0.6,0.1c-0.1,0.1-0.2,0.1-0.3,0.2
			s-0.1,0.2-0.1,0.3c0,0.2,0.1,0.4,0.2,0.5c0.1,0.1,0.3,0.2,0.6,0.2c0.2,0,0.5-0.1,0.7-0.2s0.3-0.2,0.4-0.4s0.1-0.4,0.1-0.8
			L55.7,123.2L55.7,123.2z"/>
		<path class="st7" d="M57.4,125.3v-4.1H58v0.6c0.2-0.3,0.3-0.5,0.4-0.6c0.1-0.1,0.3-0.1,0.4-0.1c0.2,0,0.5,0.1,0.7,0.2l-0.2,0.6
			c-0.2-0.1-0.3-0.2-0.5-0.2c-0.1,0-0.3,0-0.4,0.1s-0.2,0.2-0.3,0.4c-0.1,0.3-0.1,0.5-0.1,0.8v2.1h-0.6V125.3z"/>
		<path class="st7" d="M62.7,124.8c-0.2,0.2-0.5,0.3-0.7,0.4s-0.5,0.2-0.8,0.2c-0.4,0-0.8-0.1-1-0.3s-0.4-0.5-0.4-0.9
			c0-0.2,0.1-0.4,0.2-0.6c0.1-0.2,0.3-0.3,0.5-0.4s0.5-0.2,0.9-0.2c0.6-0.1,1-0.1,1.2-0.2v-0.2c0-0.3-0.1-0.5-0.2-0.6
			c-0.2-0.2-0.4-0.2-0.8-0.2c-0.3,0-0.6,0.1-0.7,0.2c-0.2,0.1-0.3,0.3-0.3,0.6l-0.7-0.1c0.1-0.4,0.3-0.8,0.6-1s0.7-0.3,1.3-0.3
			c0.4,0,0.8,0.1,1,0.2s0.4,0.3,0.5,0.5s0.1,0.5,0.1,0.9v0.9c0,0.6,0,1.1,0,1.2c0,0.2,0.1,0.3,0.2,0.5h-0.7
			C62.7,125.1,62.7,125,62.7,124.8z M62.6,123.2c-0.3,0.1-0.6,0.2-1.1,0.3c-0.3,0-0.5,0.1-0.6,0.1s-0.2,0.1-0.3,0.2
			s-0.1,0.2-0.1,0.3c0,0.2,0.1,0.4,0.2,0.5c0.1,0.1,0.3,0.2,0.6,0.2c0.2,0,0.5-0.1,0.7-0.2s0.3-0.2,0.4-0.4s0.1-0.4,0.1-0.8
			L62.6,123.2L62.6,123.2z"/>
		<path class="st7" d="M63.5,126.9l0.1-0.6c0.1,0,0.2,0.1,0.3,0.1s0.3,0,0.3-0.1c0.1-0.1,0.1-0.3,0.1-0.7v-4.3H65v4.3
			c0,0.6-0.1,0.9-0.3,1.1s-0.4,0.3-0.8,0.3C63.9,126.9,63.7,126.9,63.5,126.9z M64.4,120.4v-0.8h0.7v0.8H64.4z"/>
		<path class="st7" d="M65.8,123.2c0-0.7,0.2-1.2,0.5-1.6c0.4-0.4,0.8-0.5,1.4-0.5c0.5,0,1,0.2,1.4,0.5c0.4,0.4,0.5,0.9,0.5,1.6
			s-0.2,1.3-0.5,1.6c-0.4,0.4-0.8,0.5-1.4,0.5c-0.5,0-1-0.2-1.4-0.5C66,124.5,65.8,123.9,65.8,123.2z M66.6,123.2
			c0,0.5,0.1,0.9,0.3,1.2c0.2,0.3,0.5,0.4,0.9,0.4c0.3,0,0.6-0.1,0.8-0.4c0.2-0.3,0.3-0.7,0.3-1.2s-0.1-0.9-0.3-1.2
			c-0.2-0.3-0.5-0.4-0.9-0.4c-0.3,0-0.6,0.1-0.8,0.4S66.6,122.7,66.6,123.2z"/>
		<path class="st7" d="M72,124.7l0.1,0.6c-0.2,0-0.4,0.1-0.5,0.1c-0.2,0-0.4,0-0.6-0.1s-0.2-0.2-0.3-0.3s-0.1-0.4-0.1-0.8v-2.4h-0.5
			v-0.5h0.5v-1l0.7-0.4v1.4H72v0.5h-0.7v2.4c0,0.2,0,0.4,0.1,0.4c0.1,0.1,0.2,0.1,0.3,0.1C71.7,124.7,71.8,124.7,72,124.7z"/>
		<path class="st7" d="M72.6,125.3v-5.7h0.7v2c0.2-0.2,0.3-0.3,0.5-0.4s0.4-0.1,0.7-0.1c0.4,0,0.8,0.1,1,0.3
			c0.2,0.2,0.4,0.6,0.4,1.3v2.6h-0.7v-2.6c0-0.4-0.1-0.6-0.2-0.8c-0.2-0.2-0.4-0.2-0.6-0.2c-0.3,0-0.6,0.1-0.8,0.3
			c-0.2,0.2-0.3,0.5-0.3,1.1v2.2C73.3,125.3,72.6,125.3,72.6,125.3z"/>
		<path class="st7" d="M77,120.4v-0.8h0.7v0.8H77z M77,125.3v-4.1h0.7v4.1H77z"/>
	</g>
</g>
<g>
	<path d="M83.4,19.3V9.1h-3.9V7.6H89v1.5h-3.9v10.5h-1.7C83.4,19.6,83.4,19.3,83.4,19.3z"/>
	<path d="M90.5,19.3V7.6h2.4l2.8,8.2c0.4,1,0.6,1.5,0.6,1.8c0.2-0.4,0.4-1.1,0.6-1.8l2.8-8.3h2.2v11.8h-1.5V9.5l-3.5,9.9h-1.5
		L91.9,9.3v10.2h-1.3v-0.1H90.5z"/>
</g>
</svg>
